<svg xmlns="http://www.w3.org/2000/svg" viewBox="0 0 920 90" width="920" height="90">
<title>commit: a snapshot of a directory is appended as a change of the workspace</title>
<style>text{font-family:-apple-system, BlinkMacSystemFont, 'Segoe UI', system-ui, sans-serif;font-size:13px;fill:#1c1e21}.m{font-family:ui-monospace, SFMono-Regular, Menlo, Consolas, monospace}.s{font-size:11px;fill:#6f7985}.f{font-size:11px;fill:#a3abb5}.b{font-weight:600}.n{font-variant-numeric:tabular-nums}.fr{font-family:ui-monospace, SFMono-Regular, Menlo, Consolas, monospace;font-size:11.5px;fill:#a3abb5}.ch{font-family:ui-monospace, SFMono-Regular, Menlo, Consolas, monospace;font-size:12px}.e{font-family:ui-monospace, SFMono-Regular, Menlo, Consolas, monospace;font-size:11.5px}.a{stroke:#a3abb5;fill:none}.d{stroke-dasharray:3 3}.bx{stroke:#d3d9e0;fill:none}.c{font-size:12px}</style>
<rect width="920" height="90" fill="#fff"/>
<rect x="12.5" y="20.5" width="91" height="32" rx="6" fill="#f6f7f9" stroke="#d3d9e0"/>
<text x="23" y="40" class="ch">./edited</text>
<text x="12" y="15" class="s"><tspan class="m">DIR</tspan></text>
<path class="a" d="M110,36.5H184"/><path fill="#a3abb5" d="M188,36.5l-5,-2.5v5z"/>
<text x="147" y="30.5" class="s" text-anchor="middle">snapshot</text>
<circle cx="199" cy="36.5" r="0.9" fill="#a3abb5"/>
<circle cx="203" cy="36.5" r="0.9" fill="#a3abb5"/>
<circle cx="207" cy="36.5" r="0.9" fill="#a3abb5"/>
<path class="a" d="M210,36.5h12"/>
<rect x="222.5" y="24.5" width="147" height="24" rx="6" fill="#fff" stroke="#d3d9e0"/>
<g transform="translate(230,30) scale(0.9286)" stroke="#2b6f6f" fill="#2b6f6f" stroke-width="1.5" stroke-linecap="round" stroke-linejoin="round"><path d="M4 2.5l7 4.5-7 4.5z" fill="none"/></g>
<text x="249" y="40.5" class="c">exec make → exit 1</text>
<text x="296.5" y="15" class="s m" text-anchor="middle">ENTRY</text>
<path class="a" d="M296.5,18V24"/>
<path class="a" d="M370,36.5h12"/>
<rect x="382.5" y="24.5" width="234" height="24" rx="6" fill="#dfe9f6" stroke="#3567a0"/>
<g transform="translate(390,30) scale(0.9286)" stroke="#7556a3" fill="#7556a3" stroke-width="1.5" stroke-linecap="round" stroke-linejoin="round"><path d="M7 1.6L12.4 7 7 12.4 1.6 7z" fill="none"/></g>
<text x="409" y="40.5" class="c">workspace changed: M src/eval.py</text>
<path class="a" d="M296.5,64.5H499.5"/>
<circle cx="296.5" cy="64.5" r="3.5" fill="#fff" stroke="#6f7985"/>
<text x="296.5" y="81.5" class="s m" text-anchor="middle">w3</text>
<circle cx="499.5" cy="64.5" r="3.5" fill="#fff" stroke="#6f7985"/>
<text x="499.5" y="81.5" class="s m" text-anchor="middle">w4</text>
<text x="511.5" y="68.5" class="s">the workspace moves to a new version</text>
</svg>
