<svg xmlns="http://www.w3.org/2000/svg" viewBox="0 0 920 136" width="920" height="136">
<title>grading: the agent is stopped, the grader is called, and resume runs its command and returns the verdict</title>
<style>text{font-family:-apple-system, BlinkMacSystemFont, 'Segoe UI', system-ui, sans-serif;font-size:13px;fill:#1c1e21}.m{font-family:ui-monospace, SFMono-Regular, Menlo, Consolas, monospace}.s{font-size:11px;fill:#6f7985}.f{font-size:11px;fill:#a3abb5}.b{font-weight:600}.n{font-variant-numeric:tabular-nums}.fr{font-family:ui-monospace, SFMono-Regular, Menlo, Consolas, monospace;font-size:11.5px;fill:#a3abb5}.ch{font-family:ui-monospace, SFMono-Regular, Menlo, Consolas, monospace;font-size:12px}.e{font-family:ui-monospace, SFMono-Regular, Menlo, Consolas, monospace;font-size:11.5px}.a{stroke:#a3abb5;fill:none}.d{stroke-dasharray:3 3}.bx{stroke:#d3d9e0;fill:none}.c{font-size:12px}</style>
<rect width="920" height="136" fill="#fff"/>
<circle cx="15" cy="36.5" r="0.9" fill="#a3abb5"/>
<circle cx="19" cy="36.5" r="0.9" fill="#a3abb5"/>
<circle cx="23" cy="36.5" r="0.9" fill="#a3abb5"/>
<path class="a" d="M26,36.5h12"/>
<rect x="38.5" y="24.5" width="173" height="24" rx="6" fill="#fff" stroke="#d3d9e0"/>
<g transform="translate(46,30) scale(0.9286)" stroke="#2b6f6f" fill="#2b6f6f" stroke-width="1.5" stroke-linecap="round" stroke-linejoin="round"><path d="M4 2.5l7 4.5-7 4.5z" fill="none"/></g>
<text x="65" y="40.5" class="c">exec make test → exit 1</text>
<text x="125.5" y="15" class="s m" text-anchor="middle">ENTRY</text>
<path class="a" d="M125.5,18V24"/>
<path class="a" d="M212,36.5h12"/>
<circle cx="227" cy="36.5" r="0.9" fill="#a3abb5"/>
<circle cx="231" cy="36.5" r="0.9" fill="#a3abb5"/>
<circle cx="235" cy="36.5" r="0.9" fill="#a3abb5"/>
<path class="a" d="M238,36.5h12"/>
<rect x="250.5" y="24.5" width="165" height="24" rx="6" fill="#fff" stroke="#d3d9e0"/>
<g transform="translate(258,30) scale(0.9286)" stroke="#2a7a4b" fill="#2a7a4b" stroke-width="1.5" stroke-linecap="round" stroke-linejoin="round"><path d="M11.5 4.5v2.5a2 2 0 0 1-2 2H3" fill="none"/><path d="M5.5 6.5L3 9l2.5 2.5" fill="none"/></g>
<text x="277" y="40.5" class="c">return Submitted: done</text>
<path class="a" d="M52.5,49V67.5Q52.5,73.5 58.5,73.5H66"/>
<rect x="66.5" y="61.5" width="134" height="24" rx="6" fill="#dfe9f6" stroke="#3567a0"/>
<g transform="translate(74,67) scale(0.9286)" stroke="#b3261e" fill="#b3261e" stroke-width="1.5" stroke-linecap="round" stroke-linejoin="round"><rect x="3" y="3" width="8" height="8" rx="1" fill="none"/></g>
<text x="93" y="77.5" class="c">stopped: to grade</text>
<path class="a" d="M201,73.5h12"/>
<rect x="213.5" y="61.5" width="95" height="24" rx="6" fill="#dfe9f6" stroke="#3567a0"/>
<g transform="translate(221,67) scale(0.9286)" stroke="#7556a3" fill="#7556a3" stroke-width="1.5" stroke-linecap="round" stroke-linejoin="round"><path d="M3 2.5h8v9H3z" fill="none"/><path d="M5 5.5l1.2 1.2L8.8 4.2M5 9h4" fill="none"/></g>
<text x="240" y="77.5" class="c">call grader</text>
<path class="a" d="M309,73.5h12"/>
<rect x="321.5" y="61.5" width="102" height="24" rx="6" fill="#fff" stroke="#d3d9e0" stroke-dasharray="3 2"/>
<g transform="translate(329,67) scale(0.9286)" stroke="#6f7985" fill="#6f7985" stroke-width="1.5" stroke-linecap="round" stroke-linejoin="round"><path d="M2 7h7" fill="none"/><path d="M6.5 4.5L9 7l-2.5 2.5" fill="none"/><path d="M11.5 2.5v9" fill="none"/></g>
<text x="348" y="77.5" class="c" style="fill:#6f7985">open grader</text>
<path class="a" d="M424,73.5h12"/>
<rect x="436.5" y="61.5" width="115" height="24" rx="6" fill="#fff" stroke="#d3d9e0" stroke-dasharray="3 2"/>
<g transform="translate(444,67) scale(0.9286)" stroke="#2b6f6f" fill="#2b6f6f" stroke-width="1.5" stroke-linecap="round" stroke-linejoin="round"><path d="M4 2.5l7 4.5-7 4.5z" fill="none"/></g>
<text x="463" y="77.5" class="c" style="fill:#6f7985">exec grade.sh</text>
<path class="a" d="M552,73.5h12"/>
<rect x="564.5" y="61.5" width="128" height="24" rx="6" fill="#fff" stroke="#d3d9e0" stroke-dasharray="3 2"/>
<g transform="translate(572,67) scale(0.9286)" stroke="#2a7a4b" fill="#2a7a4b" stroke-width="1.5" stroke-linecap="round" stroke-linejoin="round"><path d="M11.5 4.5v2.5a2 2 0 0 1-2 2H3" fill="none"/><path d="M5.5 6.5L3 9l2.5 2.5" fill="none"/></g>
<text x="591" y="77.5" class="c" style="fill:#6f7985">return fail 12/48</text>
<rect x="703.6" y="64" width="46.4" height="18" rx="9" fill="#f8dfdd"/><text x="726.8" y="77" class="s n" style="fill:#8a2a25" text-anchor="middle">exit 1</text>
<text x="66" y="101" class="s"><tspan class="m">stop</tspan> and <tspan class="m">call</tspan> append; <tspan class="m">resume</tspan> runs the grader in its own frame</text>
<text x="12" y="127" class="s">where no call runs, as after the agent's end: no stop, and the grader is called there</text>
</svg>
