<svg xmlns="http://www.w3.org/2000/svg" viewBox="0 0 920 94" width="920" height="94">
<title>tell: a message is appended after the given entry, on a fork when the entry already goes on</title>
<style>text{font-family:-apple-system, BlinkMacSystemFont, 'Segoe UI', system-ui, sans-serif;font-size:13px;fill:#1c1e21}.m{font-family:ui-monospace, SFMono-Regular, Menlo, Consolas, monospace}.s{font-size:11px;fill:#6f7985}.f{font-size:11px;fill:#a3abb5}.b{font-weight:600}.n{font-variant-numeric:tabular-nums}.fr{font-family:ui-monospace, SFMono-Regular, Menlo, Consolas, monospace;font-size:11.5px;fill:#a3abb5}.ch{font-family:ui-monospace, SFMono-Regular, Menlo, Consolas, monospace;font-size:12px}.e{font-family:ui-monospace, SFMono-Regular, Menlo, Consolas, monospace;font-size:11.5px}.a{stroke:#a3abb5;fill:none}.d{stroke-dasharray:3 3}.bx{stroke:#d3d9e0;fill:none}.c{font-size:12px}</style>
<rect width="920" height="94" fill="#fff"/>
<circle cx="15" cy="36.5" r="0.9" fill="#a3abb5"/>
<circle cx="19" cy="36.5" r="0.9" fill="#a3abb5"/>
<circle cx="23" cy="36.5" r="0.9" fill="#a3abb5"/>
<path class="a" d="M26,36.5h12"/>
<rect x="38.5" y="24.5" width="156" height="24" rx="6" fill="#fff" stroke="#d3d9e0"/>
<g transform="translate(46,30) scale(0.9286)" stroke="#3567a0" fill="#3567a0" stroke-width="1.5" stroke-linecap="round" stroke-linejoin="round"><path d="M2.5 3.5L6 7l-3.5 3.5" fill="none"/><path d="M7.5 10.5h4" fill="none"/></g>
<text x="65" y="40.5" class="c">sample → bash make</text>
<text x="116.5" y="15" class="s m" text-anchor="middle">ENTRY</text>
<path class="a" d="M116.5,18V24"/>
<path class="a" d="M195,36.5h12"/>
<rect x="207.5" y="24.5" width="93" height="24" rx="6" fill="#fff" stroke="#d3d9e0"/>
<g transform="translate(215,30) scale(0.9286)" stroke="#6f7985" fill="#6f7985" stroke-width="1.5" stroke-linecap="round" stroke-linejoin="round"><path d="M2 7h7" fill="none"/><path d="M6.5 4.5L9 7l-2.5 2.5" fill="none"/><path d="M11.5 2.5v9" fill="none"/></g>
<text x="234" y="40.5" class="c">open bash</text>
<path class="a" d="M301,36.5h12"/>
<circle cx="316" cy="36.5" r="0.9" fill="#a3abb5"/>
<circle cx="320" cy="36.5" r="0.9" fill="#a3abb5"/>
<circle cx="324" cy="36.5" r="0.9" fill="#a3abb5"/>
<path class="a" d="M52.5,49V67.5Q52.5,73.5 58.5,73.5H66"/>
<rect x="66.5" y="61.5" width="187" height="24" rx="6" fill="#dfe9f6" stroke="#3567a0"/>
<g transform="translate(74,67) scale(0.9286)" stroke="#7556a3" fill="#7556a3" stroke-width="1.5" stroke-linecap="round" stroke-linejoin="round"><path d="M2 3h10v6H6l-3 2.5V9H2z" fill="none"/></g>
<text x="93" y="77.5" class="c">said “look at the evaluator”</text>
<text x="343" y="40.5" class="s"><tspan class="m">ENTRY</tspan> already goes on, so this is a fork</text>
<text x="343" y="77.5" class="s">read at the agent’s next inbox, in the next run</text>
</svg>
